<?xml version="1.0" standalone="no"?>
<!DOCTYPE svg PUBLIC "-//W3C//DTD SVG 20010904//EN"
 "http://www.w3.org/TR/2001/REC-SVG-20010904/DTD/svg10.dtd">
<svg version="1.0" xmlns="http://www.w3.org/2000/svg"
 width="256.000000pt" height="256.000000pt" viewBox="0 0 256.000000 256.000000"
 preserveAspectRatio="xMidYMid meet">

<g transform="translate(0.000000,256.000000) scale(0.100000,-0.100000)"
fill="#000000" stroke="none">
<path d="M0 1280 l0 -1280 1280 0 1280 0 0 1280 0 1280 -1280 0 -1280 0 0
-1280z m138 -197 c-22 -6 -23 -19 -3 -27 24 -9 18 -36 -7 -35 -17 1 -19 2 -5
6 21 6 22 19 2 27 -24 9 -18 36 8 35 16 -1 18 -2 5 -6z m422 -29 c0 -31 -3
-35 -22 -32 -15 2 -24 11 -26 26 -3 20 6 27 31 23 4 0 7 4 7 9 0 6 2 10 5 10
3 0 5 -16 5 -36z m132 25 c-28 -11 -26 -42 2 -47 14 -3 17 0 13 12 -4 9 -2 16
3 16 6 0 10 -9 10 -21 0 -16 -5 -20 -27 -17 -45 5 -45 69 -1 67 l23 0 -23 -10z
m778 -24 c0 -29 -4 -35 -20 -35 -11 0 -23 7 -26 15 -7 18 14 47 27 39 5 -3 9
0 9 5 0 6 2 11 5 11 3 0 5 -16 5 -35z m160 20 c20 -24 3 -57 -28 -53 -27 3
-39 26 -28 54 7 18 40 18 56 -1z m413 5 c-13 -5 -23 -16 -23 -25 0 -9 10 -20
23 -25 l22 -9 -22 0 c-13 -1 -24 7 -28 19 -8 24 10 50 34 49 11 0 9 -3 -6 -9z
m204 -42 c-2 -13 -4 -5 -4 17 -1 22 1 32 4 23 2 -10 2 -28 0 -40z m-2037 32
c-13 -8 -12 -11 5 -24 19 -14 19 -15 2 -22 -10 -3 -21 -4 -24 0 -4 3 2 6 12 6
18 0 18 0 0 13 -18 14 -14 37 8 37 7 0 6 -4 -3 -10z m45 -20 c0 -16 -3 -30 -7
-30 -5 0 -8 14 -8 30 0 17 3 30 8 30 4 0 7 -13 7 -30z m63 12 c2 -7 -1 -12 -8
-12 -6 0 -8 5 -5 10 3 6 1 10 -4 10 -18 0 -12 -38 7 -43 13 -4 12 -5 -4 -6
-26 -1 -39 26 -23 46 13 15 31 13 37 -5z m62 -19 c0 -32 -5 -28 -14 10 -4 19
-3 26 4 22 5 -3 10 -18 10 -32z m28 -4 c-3 -20 -5 -19 -9 9 -3 20 -2 29 4 23
5 -5 7 -19 5 -32z m60 8 c3 -22 -1 -27 -17 -27 -14 0 -21 6 -20 18 0 10 3 12
6 5 2 -7 9 -13 14 -13 12 0 11 37 -1 43 -6 3 -5 4 2 3 7 -1 14 -15 16 -29z
m147 22 c4 -6 4 -13 0 -17 -3 -3 -10 0 -15 8 -8 12 -10 11 -10 -7 0 -12 8 -23
18 -26 12 -4 11 -5 -6 -6 -27 -1 -39 23 -22 44 15 18 26 19 35 4z m165 -10 c0
-5 -4 -9 -10 -9 -5 0 -10 6 -10 13 0 8 -4 7 -10 -3 -14 -21 -12 -28 8 -33 16
-4 16 -5 -1 -6 -22 -1 -33 25 -17 44 12 14 40 10 40 -6z m32 9 c-5 -7 -12 -22
-15 -33 -4 -16 -5 -14 -6 7 -1 22 7 33 28 37 2 1 -1 -5 -7 -11z m68 -9 c0 -5
-4 -9 -10 -9 -5 0 -10 6 -10 13 0 8 -4 7 -10 -3 -14 -21 -12 -28 8 -33 16 -4
16 -5 -1 -6 -22 -1 -33 25 -17 44 12 14 40 10 40 -6z m59 -18 c-1 -25 -1 -25
-7 -3 -4 13 -11 23 -17 23 -5 0 -13 -10 -17 -23 -6 -22 -6 -22 -7 4 -1 14 5
28 12 31 22 8 37 -5 36 -32z m33 27 c-17 -17 -15 -36 6 -41 16 -4 16 -5 -1 -6
-23 -1 -33 25 -17 44 7 8 15 15 18 15 3 0 1 -5 -6 -12z m96 -21 c3 -21 -1 -27
-17 -27 -23 0 -36 16 -21 25 5 3 10 1 10 -4 0 -6 5 -11 10 -11 13 0 13 37 0
43 -6 3 -5 4 2 3 7 -1 14 -15 16 -29z m90 19 c6 -4 12 -17 12 -29 -1 -19 -3
-18 -14 8 -13 30 -17 28 -29 -15 -2 -8 -6 -1 -8 16 -5 31 9 39 39 20z m58 -4
c1 -7 0 -8 -3 -2 -8 17 -23 11 -23 -9 0 -11 8 -22 18 -24 16 -4 16 -5 -1 -6
-20 -1 -32 22 -23 45 7 17 28 15 32 -4z m74 -24 c0 -10 -5 -16 -10 -13 -6 4
-8 11 -4 16 3 5 0 18 -8 27 -12 15 -11 16 5 3 9 -7 17 -22 17 -33z m25 12 c0
-16 -3 -30 -7 -30 -5 0 -8 14 -8 30 0 17 3 30 8 30 4 0 7 -13 7 -30z m63 13
c12 -24 4 -43 -18 -43 -22 0 -34 28 -19 46 15 19 26 18 37 -3z m148 -1 c1 -7
0 -8 -3 -2 -8 17 -23 11 -23 -9 0 -11 8 -22 18 -24 13 -4 11 -5 -5 -6 -18 -1
-23 4 -23 22 0 13 3 27 7 31 9 9 26 2 29 -12z m253 -21 c-1 -25 -1 -25 -7 -3
-4 13 -11 23 -17 23 -5 0 -13 -10 -17 -23 -6 -22 -6 -22 -7 4 -1 14 5 28 12
31 22 8 37 -5 36 -32z m59 5 c-2 -13 -10 -21 -23 -21 -23 0 -33 34 -14 45 20
13 40 -1 37 -24z m128 16 c1 -7 0 -8 -3 -2 -8 17 -23 11 -23 -9 0 -11 8 -22
18 -24 13 -4 11 -5 -5 -6 -18 -1 -23 4 -23 22 0 13 3 27 7 31 9 9 26 2 29 -12z
m152 -15 c3 -21 -1 -27 -17 -27 -24 0 -36 16 -20 26 8 4 9 3 5 -4 -4 -7 -1
-12 8 -12 19 0 21 21 4 39 -11 11 -10 13 2 9 8 -3 16 -17 18 -31z m62 -3 c0
-14 -6 -24 -14 -24 -8 0 -16 -6 -19 -12 -8 -25 -13 -3 -6 32 4 22 7 27 8 13 0
-13 6 -23 12 -23 7 0 9 10 7 25 -3 13 -1 22 3 19 5 -3 9 -16 9 -30z m128 -5
c-3 -20 -5 -19 -9 9 -3 20 -2 29 4 23 5 -5 7 -19 5 -32z m62 26 c16 -20 5 -45
-20 -45 -14 0 -20 7 -20 23 0 38 18 48 40 22z m40 5 c-13 -8 -12 -11 5 -24 19
-14 19 -15 2 -22 -10 -3 -21 -4 -24 0 -4 3 2 6 12 6 18 0 18 0 0 13 -18 14
-14 37 8 37 7 0 6 -4 -3 -10z m-2230 -25 c0 -33 -15 -33 -16 0 -1 14 2 25 7
25 5 0 9 -11 9 -25z m169 18 c0 -5 -4 -17 -9 -28 -8 -18 -9 -17 -9 8 -1 15 4
27 9 27 6 0 10 -3 9 -7z m658 -30 c-3 -10 -5 -4 -5 12 0 17 2 24 5 18 2 -7 2
-21 0 -30z m90 0 c-3 -10 -5 -4 -5 12 0 17 2 24 5 18 2 -7 2 -21 0 -30z m150
0 c-3 -10 -5 -4 -5 12 0 17 2 24 5 18 2 -7 2 -21 0 -30z m423 7 c5 0 11 8 13
18 3 12 5 13 6 2 0 -8 -4 -22 -9 -30 -9 -13 -11 -13 -20 0 -5 8 -9 22 -9 30 1
11 3 10 6 -2 2 -10 8 -18 13 -18z m37 -7 c-3 -10 -5 -4 -5 12 0 17 2 24 5 18
2 -7 2 -21 0 -30z m183 -5 c0 -4 -10 -8 -22 -7 -21 0 -21 1 -4 8 18 7 18 8 3
14 -9 3 -17 12 -17 18 0 7 8 5 20 -6 11 -10 20 -22 20 -27z m322 17 c-2 -14
-6 -25 -8 -25 -2 0 -4 11 -4 25 0 14 4 25 9 25 4 0 6 -11 3 -25z m65 -12 c-3
-10 -5 -4 -5 12 0 17 2 24 5 18 2 -7 2 -21 0 -30z"/>
<path d="M526 1063 c-12 -12 -6 -33 9 -33 8 0 15 6 15 14 0 17 -14 28 -24 19z"/>
<path d="M1435 1060 c-7 -12 2 -30 16 -30 12 0 12 27 0 35 -5 3 -12 1 -16 -5z"/>
<path d="M1584 1065 c-4 -9 -2 -21 4 -27 15 -15 44 -1 40 19 -4 23 -36 29 -44
8z"/>
<path d="M1347 1056 c-6 -15 1 -26 15 -26 4 0 8 9 8 20 0 23 -15 27 -23 6z"/>
<path d="M1806 1063 c-12 -12 -6 -33 9 -33 8 0 15 6 15 14 0 17 -14 28 -24 19z"/>
<path d="M2344 1056 c-8 -22 3 -33 18 -18 9 9 9 15 0 24 -9 9 -13 7 -18 -6z"/>
</g>
</svg>
