<svg id="Capa_1" enable-background="new 0 0 512 512" height="512" viewBox="0 0 512 512" width="512" xmlns="http://www.w3.org/2000/svg"><g><g><g><g><g><path d="m244.872 305.49c-1.638-3.932-5.689-6.455-9.949-6.147-4.151.3-7.74 3.231-8.89 7.225-1.154 4.009.393 8.451 3.788 10.875 3.353 2.394 7.939 2.469 11.371.188 3.919-2.606 5.488-7.801 3.68-12.141z"/><path d="m178.549 284.974h-21.97v-21.97c0-5.523-4.477-10-10-10h-37.925c-5.523 0-10 4.477-10 10v21.97h-21.97c-5.523 0-10 4.477-10 10v37.925c0 5.523 4.477 10 10 10h21.97v21.97c0 5.523 4.477 10 10 10h37.925c5.523 0 10-4.477 10-10v-21.97h21.97c5.523 0 10-4.477 10-10v-37.925c0-5.523-4.477-10-10-10zm-10 37.924h-21.97c-5.523 0-10 4.477-10 10v21.97h-17.925v-21.97c0-5.523-4.477-10-10-10h-21.97v-17.925h21.97c5.523 0 10-4.477 10-10v-21.97h17.925v21.97c0 5.523 4.477 10 10 10h21.97z"/><path d="m471.131 356.439c-9.894-9.894-23.049-15.342-37.041-15.342s-27.146 5.449-37.04 15.342l-20.38 20.381v-10.735c0-22.18-13.857-41.184-33.368-48.811v-161.317c0-18.807-15.3-34.107-34.107-34.107h-20.292v-21.801h39.295c5.523 0 10-4.477 10-10v-62.716c0-15.072-12.261-27.333-27.332-27.333h-252.879c-15.071 0-27.332 12.261-27.332 27.333v62.715c0 5.523 4.477 10 10 10h39.295v21.801h-20.292c-18.807 0-34.107 15.301-34.107 34.107v321.937c0 18.807 15.3 34.107 34.107 34.107h264.628c7.782 0 15.173-1.706 21.818-4.763 6.914 3.166 14.329 4.709 21.714 4.709 13.627 0 27.145-5.26 37.174-15.289l33.068-33.069 33.069-33.068c20.426-20.424 20.425-53.657.002-74.081zm-114.461 103.178c0 17.856-14.527 32.383-32.383 32.383s-32.383-14.527-32.383-32.383v-36.766h64.766zm0-93.532v36.766h-64.766v-36.766c0-17.856 14.527-32.383 32.383-32.383s32.383 14.527 32.383 32.383zm-306.015-338.752c0-4.043 3.29-7.333 7.333-7.333h252.878c4.043 0 7.333 3.29 7.333 7.333v52.715h-29.295v-26.793c0-5.523-4.477-10-10-10s-10 4.477-10 10v26.792h-27.238v-26.792c0-5.523-4.477-10-10-10s-10 4.477-10 10v26.792h-27.238v-26.792c0-5.523-4.477-10-10-10s-10 4.477-10 10v26.792h-27.239v-26.792c0-5.523-4.477-10-10-10s-10 4.477-10 10v26.792h-27.239v-26.792c0-5.523-4.477-10-10-10s-10 4.477-10 10v26.792h-29.295zm49.295 72.715h168.954v21.801h-168.954zm-54.399 377.845v-57.021h190.089c5.523 0 10-4.477 10-10v-56.535c0-5.523-4.477-10-10-10s-10 4.477-10 10v46.535h-180.089v-173.872h180.089v36.925c0 5.523 4.477 10 10 10s10-4.477 10-10v-46.925c0-5.523-4.477-10-10-10h-190.089v-51.043c0-7.779 6.328-14.107 14.107-14.107h249.537c7.779 0 14.107 6.329 14.107 14.107v157.755c-28.431.527-51.398 23.819-51.398 52.374v93.532c0 12.214 4.202 23.464 11.236 32.383h-223.482c-7.779-.001-14.107-6.329-14.107-14.108zm345.3 4.622c-6.778 6.778-16.128 10.033-25.329 9.372 6.98-8.9 11.147-20.108 11.147-32.27v-43.278l40.179 40.179zm66.138-66.137-25.998 25.997-45.796-45.796 25.998-25.997c6.116-6.116 14.248-9.484 22.898-9.484 8.649 0 16.782 3.368 22.898 9.485 12.625 12.625 12.625 33.169 0 45.795z"/></g></g></g></g></g></svg>