<?xml version="1.0" standalone="no"?>
<!DOCTYPE svg PUBLIC "-//W3C//DTD SVG 20010904//EN"
 "http://www.w3.org/TR/2001/REC-SVG-20010904/DTD/svg10.dtd">
<svg version="1.0" xmlns="http://www.w3.org/2000/svg"
 width="1234.000000pt" height="1280.000000pt" viewBox="0 0 1234.000000 1280.000000"
 preserveAspectRatio="xMidYMid meet">
<metadata>
Created by potrace 1.15, written by Peter Selinger 2001-2017
</metadata>
<g transform="translate(0.000000,1280.000000) scale(0.100000,-0.100000)"
fill="#000000" stroke="none">
<path d="M5445 12790 c-135 -9 -206 -31 -254 -79 -53 -53 -67 -114 -51 -213
18 -107 45 -153 133 -222 38 -31 47 -44 47 -70 0 -38 40 -125 80 -177 39 -48
133 -111 208 -139 91 -34 297 -89 417 -110 137 -25 298 -68 435 -115 140 -49
178 -70 202 -111 12 -21 28 -34 41 -35 23 0 47 -27 179 -202 42 -56 90 -118
106 -137 16 -19 75 -114 131 -210 213 -366 318 -619 328 -795 7 -104 -11 -176
-51 -215 -14 -12 -27 -32 -30 -45 -3 -13 -23 -34 -43 -46 -21 -12 -51 -33 -67
-46 -64 -53 -168 -79 -249 -62 -125 26 -252 143 -364 334 -27 46 -30 61 -36
170 -7 147 -29 259 -101 503 -20 68 -36 132 -36 142 0 10 -6 25 -12 32 -7 7
-20 26 -28 42 -87 169 -599 374 -1090 436 -52 7 -103 16 -112 21 -9 5 -40 32
-68 59 -59 58 -178 119 -285 146 -93 24 -305 24 -435 1 -52 -10 -205 -44 -340
-77 -436 -106 -575 -122 -1315 -155 -438 -20 -647 -39 -885 -81 -573 -102
-975 -348 -1203 -736 -118 -201 -352 -698 -388 -823 -13 -44 -33 -95 -46 -114
-12 -18 -25 -49 -29 -70 -3 -20 -17 -73 -30 -119 -41 -142 -109 -533 -171
-982 -42 -296 -37 -609 13 -950 42 -288 56 -366 89 -480 20 -69 76 -289 126
-490 49 -201 110 -435 135 -520 45 -155 104 -324 110 -317 2 2 -10 44 -26 93
-89 260 -232 817 -255 992 l-7 53 36 -25 c24 -16 57 -27 94 -31 31 -3 81 -8
110 -11 l52 -5 59 59 c51 51 63 69 82 133 24 77 28 155 17 302 -4 56 -2 82 8
95 7 9 14 33 14 52 1 73 41 184 111 310 42 74 50 97 59 175 6 50 18 112 27
138 26 82 11 232 -37 367 -53 147 -125 400 -151 524 -17 84 -19 121 -14 216
11 195 124 894 151 937 9 14 13 50 13 105 -2 101 -17 136 -95 213 l-57 55 32
64 c75 152 394 423 658 558 334 171 661 233 1362 257 l235 8 62 -44 c67 -47
191 -108 339 -166 72 -28 114 -38 210 -47 66 -7 123 -14 126 -16 13 -7 229 16
330 37 180 35 257 84 309 192 24 49 31 55 125 104 150 78 254 106 395 107 106
1 120 -1 177 -28 57 -26 102 -60 92 -70 -2 -2 -69 -18 -149 -35 -87 -19 -169
-43 -205 -60 -74 -37 -145 -96 -145 -122 0 -25 6 -24 76 7 257 114 510 169
675 144 79 -11 189 -46 189 -60 0 -3 -28 -23 -62 -43 -181 -104 -198 -122
-198 -202 0 -103 86 -217 277 -366 145 -114 183 -148 183 -168 0 -28 56 -113
123 -189 115 -129 125 -182 66 -337 -42 -110 -43 -165 -5 -283 14 -46 26 -105
26 -131 0 -59 -70 -401 -104 -506 -8 -27 -12 -90 -10 -190 1 -131 5 -160 28
-230 27 -84 84 -190 143 -265 19 -25 133 -142 253 -260 120 -118 232 -237 249
-264 27 -44 31 -59 31 -122 0 -40 -9 -116 -20 -171 -11 -54 -20 -119 -20 -145
0 -46 1 -48 29 -48 26 0 33 8 69 78 65 124 83 203 89 384 8 236 -15 388 -132
858 -113 457 -140 635 -116 778 7 39 15 72 17 72 3 0 25 -19 50 -42 120 -113
262 -193 403 -229 154 -39 320 -13 447 70 79 52 162 135 170 169 4 15 14 38
24 52 45 68 79 142 93 205 77 343 21 721 -159 1076 -73 143 -154 256 -282 394
-213 229 -275 323 -355 530 -69 179 -173 364 -284 502 -84 104 -194 222 -222
237 -14 7 -42 22 -61 33 -20 10 -51 31 -71 46 -48 36 -205 110 -314 146 -144
48 -259 57 -500 41z"/>
<path d="M1845 11159 c-324 -48 -431 -89 -585 -223 -136 -118 -160 -180 -161
-421 0 -82 -4 -171 -8 -197 -7 -40 -5 -50 11 -65 11 -9 36 -49 56 -88 22 -43
62 -95 102 -136 57 -58 76 -70 162 -103 54 -21 100 -42 103 -47 13 -20 -88
-95 -300 -222 -93 -55 -179 -115 -205 -142 l-45 -46 0 -77 c0 -64 5 -87 28
-134 82 -167 350 -279 701 -295 129 -6 146 -4 274 33 21 6 23 4 21 -32 -2 -53
37 -481 57 -612 19 -130 46 -244 81 -337 47 -124 227 -370 392 -536 121 -121
236 -201 416 -289 326 -160 518 -130 533 82 6 80 -15 130 -99 236 -38 48 -76
101 -84 119 -19 39 -19 133 0 238 40 219 11 287 -186 436 -150 113 -222 207
-199 259 26 58 60 184 60 224 0 26 5 56 10 67 8 14 6 25 -6 44 -9 14 -14 35
-11 47 7 27 -12 64 -55 104 -46 44 -91 65 -152 71 -67 7 -125 -10 -181 -52
-25 -19 -49 -35 -54 -35 -11 0 -77 -65 -97 -95 -11 -17 -31 -27 -72 -35 -70
-15 -197 -72 -210 -96 -21 -38 -32 -2 -32 112 0 94 3 114 15 114 27 0 250 77
318 111 38 18 79 46 93 62 25 30 32 71 14 82 -6 4 -48 -11 -93 -34 -45 -22
-131 -54 -192 -71 -60 -17 -155 -46 -210 -65 -152 -51 -273 -69 -465 -70 -179
0 -233 9 -337 56 -76 34 -141 98 -182 181 -36 71 -41 135 -13 166 9 11 132
106 272 212 140 106 278 214 305 240 74 69 120 96 215 124 137 41 304 76 365
76 57 0 57 0 129 -70 63 -61 77 -70 110 -70 41 0 98 26 168 77 27 19 51 33 55
31 5 -1 26 -14 49 -27 l41 -25 -76 -54 c-154 -110 -251 -223 -251 -295 0 -46
15 -77 36 -77 29 0 82 -64 89 -106 21 -137 25 -149 56 -177 l30 -28 147 3
c203 3 214 -3 261 -159 23 -79 55 -124 101 -143 48 -20 99 7 240 125 147 124
242 177 330 183 72 5 94 25 146 132 20 41 68 126 107 190 102 167 130 230 121
275 -10 54 -53 97 -134 134 -38 18 -70 34 -70 37 0 15 65 132 72 128 4 -3 8
-22 8 -44 0 -31 6 -44 35 -69 20 -17 38 -31 41 -31 3 0 27 21 55 47 47 44 50
45 64 27 35 -44 61 -93 130 -239 93 -197 122 -249 184 -323 28 -34 51 -65 51
-70 0 -4 22 -33 50 -64 27 -31 50 -61 50 -67 0 -16 -175 -13 -230 4 -141 43
-202 56 -252 52 -88 -7 -117 -21 -140 -68 -44 -85 -12 -160 119 -274 52 -45
99 -97 130 -145 26 -41 60 -88 74 -105 27 -31 51 -97 91 -245 19 -71 22 -110
22 -237 0 -106 -4 -157 -12 -165 -7 -7 -12 -23 -12 -37 0 -57 -74 -138 -279
-306 -172 -141 -193 -167 -199 -244 -7 -95 19 -163 88 -235 68 -72 85 -104
134 -253 56 -170 106 -223 223 -239 113 -15 162 29 188 167 22 122 27 133 87
190 41 39 60 49 97 54 47 6 68 13 178 60 84 34 165 41 286 21 111 -18 127 -14
154 37 29 55 21 138 -21 219 -39 75 -47 110 -21 88 24 -20 105 -139 105 -155
0 -8 14 -29 30 -47 17 -18 32 -40 35 -49 3 -8 25 -30 49 -48 91 -68 96 -130
14 -169 -125 -59 -156 -72 -171 -72 -8 0 -55 14 -104 30 -224 77 -384 54 -501
-74 -82 -91 -132 -251 -132 -427 0 -63 3 -69 85 -164 26 -31 63 -42 71 -21 4
10 -5 25 -24 41 -41 35 -82 120 -89 187 -16 155 81 333 217 397 46 21 68 25
135 24 44 0 121 -9 170 -18 50 -10 124 -18 165 -18 66 -1 84 3 140 32 54 28
73 32 113 28 31 -3 56 -12 69 -25 l21 -20 -42 -74 c-106 -186 -133 -278 -97
-333 39 -60 9 -106 -107 -160 -93 -44 -288 -105 -336 -105 -20 0 -62 9 -93 20
-31 11 -64 17 -72 14 -29 -11 -25 -33 14 -64 30 -24 49 -31 82 -31 118 0 207
-5 214 -12 23 -22 -85 -58 -197 -64 -110 -7 -187 10 -427 93 -101 35 -191 64
-199 64 -49 0 -820 350 -1016 461 -75 43 -86 46 -67 24 10 -12 9 -16 -5 -21
-24 -9 -201 3 -225 16 -10 5 -38 10 -63 10 -26 0 -85 16 -150 40 -149 56 -226
73 -342 73 -122 1 -190 -18 -276 -75 -72 -48 -134 -124 -188 -228 -53 -105
-65 -155 -58 -253 6 -79 56 -270 77 -291 6 -6 10 -17 10 -26 0 -8 9 -33 21
-54 25 -48 54 -163 69 -281 40 -313 61 -383 139 -468 65 -70 95 -87 156 -87
70 0 118 31 255 165 144 140 197 181 254 196 22 6 45 16 51 23 5 7 28 18 51
24 58 17 152 80 203 138 28 32 77 119 141 249 78 157 117 224 184 311 80 106
136 198 136 226 0 7 4 19 9 26 11 18 88 -15 321 -138 206 -109 334 -166 412
-180 29 -6 56 -17 61 -25 4 -8 19 -15 31 -15 33 0 276 -56 310 -71 25 -12 26
-14 9 -20 -54 -22 -155 -6 -363 55 -154 46 -248 56 -285 32 -61 -40 -67 -128
-21 -285 23 -79 25 -143 9 -256 -11 -72 -34 -117 -113 -229 -33 -45 -69 -103
-80 -129 -16 -36 -24 -44 -40 -40 -11 3 -20 9 -20 13 0 4 29 64 66 133 36 70
74 153 85 185 20 58 19 102 -4 102 -18 0 -122 -145 -161 -225 -49 -100 -63
-148 -102 -345 -19 -96 -43 -204 -54 -240 -21 -73 -34 -160 -84 -575 -33 -273
-39 -350 -66 -765 -28 -419 -87 -604 -324 -1004 -149 -252 -223 -398 -236
-467 -7 -35 -9 -151 -4 -334 8 -386 -2 -431 -131 -575 -98 -109 -109 -135
-102 -240 4 -47 11 -116 16 -153 10 -70 3 -117 -23 -152 -13 -18 -15 -18 -39
11 -14 16 -38 54 -53 84 -55 111 -46 225 61 725 36 167 74 357 85 422 27 157
53 603 36 620 -3 3 -6 32 -6 63 0 31 -9 105 -20 165 -24 130 -25 165 -6 165
21 0 97 89 146 170 24 40 49 74 57 77 7 3 13 10 13 16 0 23 57 81 139 142 103
76 134 116 168 222 51 157 42 308 -34 566 -30 106 -36 143 -44 282 -12 218
-32 297 -91 353 -29 26 -109 34 -146 13 -12 -6 -57 -16 -98 -21 -42 -4 -81
-13 -87 -19 -6 -6 -14 -11 -18 -11 -19 0 -31 83 -40 264 -13 270 -31 307 -114
235 l-35 -31 0 -87 c0 -47 12 -149 25 -226 14 -77 30 -173 36 -213 l10 -73
-41 -49 c-52 -62 -144 -124 -214 -144 -82 -24 -212 -21 -334 9 -57 14 -112 25
-122 25 -26 0 -152 118 -233 217 -133 166 -219 306 -505 825 -209 378 -269
480 -372 632 -72 106 -122 166 -139 166 -5 0 -16 3 -25 6 -10 4 -16 1 -16 -9
0 -19 126 -266 146 -287 18 -18 114 -180 155 -262 16 -31 33 -59 38 -63 6 -3
20 -27 31 -53 12 -26 29 -56 39 -67 10 -11 33 -47 51 -80 19 -33 87 -142 152
-242 65 -101 129 -207 144 -235 14 -29 36 -64 49 -78 13 -14 47 -69 77 -124
110 -199 215 -305 385 -389 l83 -41 0 -47 c0 -26 -9 -91 -20 -144 -28 -134
-25 -192 15 -372 19 -86 35 -178 35 -204 0 -68 -26 -194 -70 -338 -77 -254
-95 -333 -110 -475 -13 -127 4 -364 45 -630 43 -279 58 -455 49 -574 -6 -88
-9 -96 -44 -141 -65 -82 -269 -246 -375 -302 l-47 -24 -29 35 c-75 89 -111
294 -64 366 31 48 65 326 65 539 0 232 -40 554 -83 680 -14 39 -54 139 -90
222 -37 84 -75 183 -87 220 -20 64 -39 223 -28 223 3 0 22 -7 41 -15 43 -18
97 -19 132 -3 17 8 28 24 36 52 32 125 55 182 105 262 31 49 60 100 66 114 18
46 10 104 -26 198 l-36 92 6 123 c10 189 -10 242 -208 544 -115 175 -154 251
-185 358 -37 128 -162 306 -259 370 -30 20 -54 40 -54 45 0 5 -16 25 -36 44
-28 28 -53 76 -118 238 -100 245 -127 299 -162 327 -59 47 -117 40 -141 -17
-23 -52 -20 -218 6 -412 24 -177 25 -194 11 -185 -13 8 3 -26 163 -365 68
-146 137 -294 151 -330 15 -36 33 -77 42 -92 8 -15 26 -58 40 -95 39 -104 73
-165 175 -318 110 -163 126 -204 165 -430 24 -142 27 -183 26 -365 -1 -217 12
-320 48 -384 10 -17 26 -58 35 -91 20 -71 39 -111 70 -145 13 -14 34 -66 49
-120 81 -291 120 -676 97 -950 -11 -124 -15 -142 -50 -216 -21 -45 -42 -95
-45 -111 -4 -16 -25 -47 -47 -69 -55 -52 -119 -144 -162 -229 -78 -155 -97
-264 -73 -415 16 -99 46 -190 63 -190 14 1 46 29 65 57 26 41 23 9 -8 -81 -34
-99 -31 -114 31 -145 43 -23 62 -26 145 -26 110 0 262 28 338 61 71 31 146
110 207 217 28 48 79 131 115 185 l65 97 0 215 c0 204 -3 229 -43 485 -24 149
-48 280 -54 292 -6 12 -8 37 -4 56 4 21 2 38 -4 42 -6 3 -10 45 -10 95 0 49
-7 140 -16 202 -12 86 -15 152 -10 272 12 305 37 453 117 690 64 190 66 237
14 440 -44 173 -45 244 -8 419 l26 128 26 -8 c49 -15 173 -5 266 22 93 27 287
114 299 134 29 46 35 -103 11 -245 -9 -49 -33 -154 -54 -234 -100 -370 -97
-442 28 -879 100 -349 114 -420 114 -591 0 -252 -122 -1034 -204 -1313 -37
-122 -69 -188 -123 -248 -22 -25 -62 -88 -88 -141 -137 -280 -138 -528 -4
-657 24 -24 36 -44 36 -63 0 -15 5 -48 12 -72 10 -37 16 -45 41 -50 55 -11
155 -6 269 14 248 42 417 130 473 245 15 30 31 58 36 60 18 12 49 120 57 203
16 159 -16 392 -55 392 -13 0 -15 9 -9 61 5 39 1 123 -10 224 -13 117 -15 177
-8 216 6 33 6 80 0 119 -17 124 39 996 67 1028 15 18 213 461 265 592 39 100
87 252 101 320 6 30 13 152 15 270 3 118 12 285 20 370 8 85 20 209 26 275 6
66 15 129 20 140 6 11 19 92 30 180 10 88 23 174 28 190 9 29 10 28 32 -40 17
-55 23 -100 26 -214 3 -80 7 -147 9 -150 3 -2 5 -16 5 -30 1 -38 32 -102 70
-139 l33 -34 -6 -151 c-7 -156 -25 -350 -53 -562 -9 -66 -17 -149 -19 -185 -2
-36 -10 -114 -19 -175 -8 -60 -34 -288 -56 -505 -23 -217 -48 -437 -56 -489
-16 -104 -14 -112 43 -166 42 -40 72 -49 95 -28 16 15 17 18 4 31 -13 13 -13
19 -2 41 8 14 17 54 21 87 6 52 10 63 31 73 14 6 26 11 28 11 2 0 -5 -37 -15
-82 -20 -92 -24 -179 -9 -208 15 -28 97 -55 166 -54 95 1 189 38 249 100 110
111 207 393 237 691 10 108 10 133 -6 220 -10 54 -22 181 -26 283 -8 166 -13
202 -49 349 -22 91 -46 212 -52 270 -23 206 6 525 72 815 16 72 33 144 36 159
3 16 12 31 18 34 19 7 78 -26 190 -107 126 -90 157 -106 241 -123 56 -12 74
-12 111 -1 57 17 77 10 68 -25 -14 -51 -21 -238 -13 -336 4 -55 23 -174 42
-265 69 -329 68 -406 -9 -950 -25 -173 -48 -349 -51 -390 -4 -50 -13 -90 -29
-120 -13 -25 -37 -92 -53 -150 -16 -58 -46 -140 -66 -182 -77 -163 -99 -344
-52 -443 13 -27 32 -57 42 -65 29 -23 85 -53 90 -47 5 5 23 67 49 172 26 102
65 194 87 206 11 6 21 9 23 7 4 -4 -10 -62 -50 -213 -53 -201 -44 -221 103
-219 173 2 358 68 433 153 l39 44 0 116 c0 64 7 163 16 221 23 160 20 269 -16
615 -14 129 -12 335 5 690 25 517 49 652 183 1049 l37 109 190 4 c196 4 227 9
307 49 59 30 66 30 80 -1 6 -15 30 -34 53 -44 47 -21 67 -46 118 -147 39 -77
69 -104 127 -111 100 -14 179 91 226 297 19 81 30 425 16 498 -11 62 -11 62
83 27 102 -39 145 -63 157 -91 10 -20 8 -28 -10 -47 -20 -22 -20 -23 -6 -260
l15 -239 -105 -316 c-135 -408 -159 -499 -150 -589 3 -37 15 -104 25 -148 31
-133 28 -157 -62 -442 -108 -343 -137 -447 -144 -516 -5 -39 -14 -66 -30 -85
-32 -39 -143 -239 -156 -282 -5 -19 -12 -57 -15 -85 -5 -44 -2 -57 28 -110 26
-46 40 -61 59 -63 17 -2 31 -13 38 -28 18 -39 92 -68 157 -60 126 15 237 86
276 175 35 82 49 203 47 396 -2 163 1 191 25 300 17 77 29 161 31 235 5 116
26 255 45 299 6 14 13 48 15 76 5 69 37 150 83 210 21 28 54 71 74 96 39 51
43 67 123 432 25 115 62 257 81 315 39 121 110 272 128 272 6 0 22 -7 34 -16
18 -12 22 -25 22 -65 0 -27 8 -75 18 -107 11 -31 20 -74 21 -96 1 -21 13 -66
26 -99 14 -33 25 -66 25 -73 0 -7 12 -36 28 -65 24 -47 27 -64 26 -144 0 -51
-10 -138 -23 -200 -32 -157 -30 -268 5 -387 39 -129 37 -210 -15 -533 -52
-326 -69 -413 -88 -442 -8 -12 -17 -40 -19 -62 -2 -22 -31 -116 -64 -209 -81
-226 -80 -244 14 -390 43 -67 49 -73 74 -67 21 4 38 -3 81 -35 29 -22 64 -40
76 -40 13 0 27 -5 30 -10 12 -20 53 -9 97 25 25 20 52 34 59 33 19 -4 82 125
119 246 42 139 63 265 64 391 0 112 -12 174 -42 208 -13 14 -17 43 -18 120 0
56 -4 153 -8 215 -13 207 24 400 135 712 34 96 62 191 62 210 0 19 -1 98 -2
175 -1 77 5 196 13 265 8 69 18 174 22 233 7 103 8 109 36 132 16 14 42 28 56
31 15 3 61 24 104 45 57 29 418 159 442 159 2 0 5 -26 8 -58 5 -74 41 -150
152 -322 47 -74 94 -158 102 -186 15 -46 15 -55 0 -108 -9 -32 -53 -136 -96
-232 -79 -174 -92 -219 -105 -363 -11 -117 -61 -205 -193 -340 -59 -60 -140
-137 -181 -172 -91 -77 -123 -137 -125 -237 -2 -105 12 -180 32 -178 11 1 18
-8 20 -21 2 -15 10 -23 24 -23 11 0 50 -14 88 -30 78 -34 139 -38 236 -15 124
29 226 90 260 156 7 15 14 51 14 78 0 50 101 368 180 566 62 156 170 347 298
525 30 41 67 103 82 138 16 34 34 62 40 62 13 0 51 -83 70 -152 23 -88 9 -214
-43 -375 -28 -86 -51 -178 -58 -235 -8 -65 -20 -111 -40 -153 -16 -33 -39
-100 -50 -150 -60 -258 -69 -288 -88 -301 -56 -39 -188 -254 -225 -366 -34
-100 -34 -141 0 -175 23 -23 31 -25 77 -20 29 3 62 8 75 12 18 6 22 3 22 -13
0 -36 48 -80 103 -97 60 -18 155 -19 227 -4 157 34 225 231 250 719 28 545 34
589 125 797 109 247 127 296 142 377 18 102 13 208 -24 432 -21 129 -27 204
-27 314 0 178 7 206 120 477 99 237 136 347 165 486 18 89 20 123 15 267 -4
91 -9 188 -12 215 -9 78 8 44 60 -120 87 -272 151 -413 260 -570 31 -44 56
-85 56 -92 0 -7 25 -40 55 -74 124 -138 163 -308 113 -492 -29 -109 -32 -319
-5 -417 53 -195 161 -293 306 -276 33 4 64 14 76 26 11 10 51 30 88 43 65 24
107 51 107 68 0 5 -12 4 -26 -1 -41 -16 -47 -12 -24 20 l21 29 -46 56 c-25 31
-54 74 -65 96 -12 22 -24 38 -28 35 -5 -3 -14 50 -20 117 -25 251 -37 278
-302 727 -287 486 -328 587 -410 1005 -28 143 -59 296 -70 340 -11 44 -21 121
-22 170 -3 80 -7 98 -39 165 -52 107 -187 307 -243 358 -73 67 -159 102 -306
126 l-126 20 -24 39 c-49 78 -182 147 -282 147 -21 0 -48 5 -59 11 -30 15
-171 13 -274 -6 -49 -8 -193 -38 -320 -65 -392 -84 -547 -106 -595 -87 -14 6
-113 14 -220 18 -170 6 -208 4 -297 -12 -142 -27 -279 -69 -403 -125 -58 -25
-127 -55 -155 -65 -27 -9 -56 -27 -63 -38 -8 -11 -55 -55 -104 -98 -50 -43
-106 -101 -124 -129 -45 -71 -323 -348 -422 -422 -106 -79 -206 -137 -306
-178 -92 -38 -204 -70 -212 -61 -3 3 2 95 11 204 19 212 16 331 -11 463 -20
97 -67 217 -104 269 -17 22 -30 45 -30 51 0 37 -80 -19 -140 -98 -94 -124
-274 -526 -311 -695 l-12 -57 -76 -42 c-125 -68 -280 -166 -360 -228 -104 -78
-174 -156 -331 -365 -257 -341 -392 -452 -575 -472 l-50 -6 30 33 c17 18 84
68 150 112 155 104 189 131 215 174 19 29 20 39 11 66 -16 45 -13 83 7 100 9
8 55 38 102 66 168 100 200 176 108 256 -22 20 -45 36 -49 36 -5 0 -9 6 -9 13
0 6 34 30 77 51 60 31 81 48 102 83 14 24 65 105 114 181 166 260 212 371 205
496 -4 92 -47 184 -150 321 -64 86 -148 217 -148 231 0 2 11 4 25 4 60 0 144
77 167 152 7 24 13 86 12 138 -1 110 -24 182 -78 246 -73 86 -85 129 -96 329
-12 229 -37 285 -164 377 -88 62 -98 75 -143 166 -45 93 -84 132 -173 175
l-71 33 58 36 c238 148 458 367 493 493 7 25 16 45 20 45 16 0 42 102 37 142
-13 100 -92 131 -374 148 -247 15 -229 8 -229 90 -1 67 -2 69 -62 151 -33 46
-87 134 -120 194 -83 151 -105 181 -151 204 -99 51 -432 54 -631 5 -93 -22
-138 -28 -235 -28 -134 0 -145 3 -275 91 -35 24 -79 48 -99 54 -64 20 -210 22
-346 5 -163 -20 -235 -20 -309 -1 -74 19 -134 61 -188 130 -64 82 -103 98
-268 105 -104 5 -149 12 -195 29 -145 55 -174 58 -300 40z"/>
<path d="M2033 9855 c-77 -24 -163 -77 -333 -204 -194 -145 -272 -190 -390
-224 -76 -23 -85 -28 -82 -48 4 -37 21 -49 73 -49 36 0 53 -5 68 -21 20 -21
20 -21 14 -1 l-5 21 38 -19 c32 -17 40 -18 53 -6 9 7 22 11 29 9 8 -3 12 6 12
26 0 55 29 44 31 -12 1 -17 3 -16 10 8 5 17 7 35 4 42 -2 7 0 15 5 18 6 4 10
-1 10 -9 0 -8 6 -21 13 -28 7 -7 17 -22 22 -33 7 -18 9 -17 14 9 6 31 31 49
31 22 0 -10 6 -13 15 -10 10 4 15 20 15 51 0 46 15 87 29 79 5 -3 11 -30 15
-60 3 -30 9 -61 12 -69 3 -10 -1 -17 -13 -20 -16 -4 -16 -5 -1 -6 11 -1 15 -6
12 -16 -4 -8 -1 -15 5 -15 7 0 11 30 11 88 0 102 7 132 27 132 13 0 15 -15 8
-110 -6 -95 -5 -110 9 -110 22 0 30 58 16 124 -10 49 -7 105 6 128 3 4 11 5
19 1 12 -4 15 -26 16 -97 l2 -91 8 81 c10 90 40 178 47 135 2 -13 -1 -59 -8
-102 -10 -70 -9 -95 7 -152 2 -9 9 -15 14 -11 6 3 9 61 7 139 -2 99 0 137 10
147 18 18 34 -8 29 -47 -7 -52 3 -59 34 -23 15 18 28 27 29 21 0 -25 20 -13
20 12 0 30 11 32 35 5 10 -11 25 -19 34 -18 13 3 16 -10 17 -75 2 -95 9 -108
17 -29 2 33 11 70 18 83 13 22 15 17 20 -61 4 -47 12 -98 18 -115 l11 -30 -4
38 c-3 20 -2 37 2 37 4 0 8 35 10 77 1 43 7 82 13 88 6 6 9 0 8 -20 -2 -17 -2
-77 -1 -134 2 -87 4 -102 17 -97 8 3 15 0 15 -7 0 -7 8 -2 18 10 9 11 26 23
37 25 19 3 20 12 21 153 0 83 5 188 10 234 11 97 13 95 -93 130 -72 24 -174
26 -240 6z"/>
<path d="M2093 9445 c0 -22 2 -30 4 -17 2 12 2 30 0 40 -3 9 -5 -1 -4 -23z"/>
<path d="M1982 9445 c0 -16 2 -22 5 -12 2 9 2 23 0 30 -3 6 -5 -1 -5 -18z"/>
<path d="M2030 9335 c0 -8 5 -15 10 -15 6 0 10 7 10 15 0 8 -4 15 -10 15 -5 0
-10 -7 -10 -15z"/>
<path d="M3660 9133 c1 -10 7 -31 16 -48 12 -26 14 -27 9 -5 -2 14 -5 35 -5
48 0 12 -4 22 -10 22 -5 0 -10 -8 -10 -17z"/>
<path d="M3817 9050 c12 -87 10 -105 -12 -102 -29 4 -67 34 -92 72 l-23 33 0
-26 c0 -24 -3 -26 -30 -20 -16 3 -30 3 -30 -1 0 -4 11 -29 25 -56 l25 -50 -22
-1 c-52 -2 -94 4 -121 18 -32 16 -45 12 -22 -7 8 -7 15 -19 15 -26 0 -8 20
-24 45 -36 46 -22 52 -32 36 -57 -7 -11 -33 -15 -99 -15 -82 -1 -93 1 -116 23
-14 14 -26 19 -26 13 0 -6 12 -19 26 -29 14 -10 37 -27 52 -39 15 -12 50 -27
79 -33 28 -7 54 -19 57 -27 3 -8 15 -14 26 -14 12 0 43 -23 73 -54 63 -64 119
-94 199 -107 117 -19 239 22 316 105 37 40 42 51 42 93 0 62 -24 101 -86 141
-76 49 -75 48 -68 101 4 35 2 50 -9 59 -12 11 -16 6 -22 -34 -9 -63 -14 -74
-35 -74 -25 0 -47 29 -60 82 -14 54 -33 54 -28 0 4 -46 -15 -52 -38 -13 -10
17 -23 31 -29 31 -5 0 -20 22 -33 48 l-22 47 7 -45z"/>
<path d="M1407 7659 c-20 -11 -79 -67 -130 -124 -80 -91 -102 -110 -167 -142
-86 -43 -153 -104 -183 -171 -41 -88 -25 -253 69 -697 38 -185 54 -234 76
-241 11 -3 17 -11 15 -18 -3 -7 45 -69 106 -137 164 -182 166 -185 242 -444
48 -163 114 -254 212 -291 52 -20 78 -14 126 28 28 25 40 47 51 90 29 113 48
256 42 315 -3 32 -5 94 -5 138 0 72 4 119 29 310 5 39 2 98 -7 165 -7 58 -16
137 -19 175 -3 39 -12 91 -20 116 -11 35 -14 93 -12 245 l3 199 -54 140 c-69
179 -111 262 -153 302 -65 63 -151 79 -221 42z"/>
<path d="M5073 6970 c-113 -23 -174 -103 -158 -206 13 -88 71 -119 282 -153
67 -11 127 -22 132 -25 5 -4 26 11 46 31 104 107 100 220 -10 294 -73 49 -207
77 -292 59z"/>
</g>
</svg>
