<svg id="Layer_3" enable-background="new 0 0 64 64" height="512" viewBox="0 0 64 64" width="512" xmlns="http://www.w3.org/2000/svg"><g><g><path d="m28 10h-20v-5c0-1.657 1.343-3 3-3h14c1.657 0 3 1.343 3 3z" fill="#5f986e"/></g><g><path d="m22 2h-11c-1.657 0-3 1.343-3 3v5h17v-5c0-1.657-1.343-3-3-3z" fill="#7ecb92"/></g><g><path d="m56 10h-20v-5c0-1.657 1.343-3 3-3h14c1.657 0 3 1.343 3 3z" fill="#5f986e"/></g><g><path d="m50 2h-11c-1.657 0-3 1.343-3 3v5h17v-5c0-1.657-1.343-3-3-3z" fill="#7ecb92"/></g><g><path d="m60 54v4c0 2.209-1.791 4-4 4h-20c-2.209 0-4-1.791-4-4v-4z" fill="#74787a"/></g><g><path d="m57 58v-4h-25v4c0 2.209 1.791 4 4 4h17c2.209 0 4-1.791 4-4z" fill="#aeb3b7"/></g><g><path d="m32 54v4c0 2.209-1.791 4-4 4h-20c-2.209 0-4-1.791-4-4v-4z" fill="#74787a"/></g><g><path d="m29 58v-4h-25v4c0 2.209 1.791 4 4 4h17c2.209 0 4-1.791 4-4z" fill="#aeb3b7"/></g><g><path d="m4 54h28v4h-28z" fill="#5f986e"/></g><g><path d="m4 54h25v4h-25z" fill="#7ecb92"/></g><g><path d="m32 54h28v4h-28z" fill="#5f986e"/></g><g><path d="m32 54h25v4h-25z" fill="#7ecb92"/></g><g><path d="m32 28v-2.757c0-2.717 1.079-5.322 3-7.243 1.921-1.921 3-4.526 3-7.243v-.757h16v.757c0 2.717 1.079 5.322 3 7.243 1.921 1.921 3 4.526 3 7.243v2.757z" fill="#74787a"/></g><g><path d="m54 18c-1.921-1.921-3-4.526-3-7.243v-.757h-13v.757c0 2.717-1.079 5.322-3 7.243s-3 4.526-3 7.243v2.757h25v-2.757c0-2.717-1.079-5.322-3-7.243z" fill="#aeb3b7"/></g><g><path d="m4 28v-2.757c0-2.717 1.079-5.322 3-7.243 1.921-1.921 3-4.526 3-7.243v-.757h16v.757c0 2.717 1.079 5.322 3 7.243 1.921 1.921 3 4.526 3 7.243v2.757z" fill="#74787a"/></g><g><path d="m26 18c-1.921-1.921-3-4.526-3-7.243v-.757h-13v.757c0 2.717-1.079 5.322-3 7.243s-3 4.526-3 7.243v2.757h25v-2.757c0-2.717-1.079-5.322-3-7.243z" fill="#aeb3b7"/></g><g><path d="m4.084 24c-.05.411-.084.824-.084 1.243v2.757h28v-2.757c0-.418-.034-.832-.084-1.243z" fill="#5f986e"/></g><g><path d="m28.916 24h-24.832c-.05.411-.084.824-.084 1.243v2.757h25v-2.757c0-.419-.034-.832-.084-1.243z" fill="#7ecb92"/></g><g><path d="m32.084 24c-.05.411-.084.824-.084 1.243v2.757h28v-2.757c0-.418-.034-.832-.084-1.243z" fill="#5f986e"/></g><g><path d="m56.916 24h-24.832c-.05.411-.084.824-.084 1.243v2.757h25v-2.757c0-.419-.034-.832-.084-1.243z" fill="#7ecb92"/></g><g><path d="m2 28h60v26h-60z" fill="#74787a"/></g><g><path d="m6 32h52v18h-52z" fill="#aeb3b7"/></g><g><path d="m6 32h49v18h-49z" fill="#e8eff4"/></g><g><g><path d="m25 47h-2v-6.764l-2.105 4.211c-.339.678-1.45.678-1.789 0l-2.106-4.211v6.764h-2v-11c0-.464.319-.867.77-.973.456-.107.917.111 1.125.526l3.105 6.211 3.105-6.211c.208-.415.67-.634 1.125-.526.451.106.77.509.77.973z" fill="#c18e59"/></g></g><g><g><path d="m27 35h6v2h-6z" fill="#c18e59"/></g></g><g><g><path d="m29 36h2v10h-2z" fill="#c18e59"/></g></g><g><g><path d="m27 45h6v2h-6z" fill="#c18e59"/></g></g><g><g><path d="m41 47h-5c-.552 0-1-.448-1-1v-11h2v10h4z" fill="#c18e59"/></g></g><g><g><path d="m43 35h2v12h-2z" fill="#c18e59"/></g></g><g><g><path d="m44 42v-2c1.654 0 3-1.346 3-3v-2h2v2c0 2.757-2.243 5-5 5z" fill="#c18e59"/></g></g><g><g><path d="m49 47h-2v-2c0-1.654-1.346-3-3-3v-2c2.757 0 5 2.243 5 5z" fill="#c18e59"/></g></g></g></svg>